  0
SECTION
  2
HEADER
  9
$ACADVER
  1
AC1009
  9
$DWGCODEPAGE
  3
ansi_1252
  9
$INSBASE
 10
0.0
 20
0.0
 30
0.0
  9
$EXTMIN
 10
1.000000000000000E+20
 20
1.000000000000000E+20
 30
1.000000000000000E+20
  9
$EXTMAX
 10
-1.000000000000000E+20
 20
-1.000000000000000E+20
 30
-1.000000000000000E+20
  9
$LIMMIN
 10
0.0
 20
0.0
  9
$LIMMAX
 10
12.0
 20
9.0
  9
$ORTHOMODE
 70
     0
  9
$REGENMODE
 70
     1
  9
$FILLMODE
 70
     1
  9
$QTEXTMODE
 70
     0
  9
$MIRRTEXT
 70
     1
  9
$DRAGMODE
 70
     2
  9
$LTSCALE
 40
1.0
  9
$OSMODE
 70
    37
  9
$ATTMODE
 70
     1
  9
$TEXTSIZE
 40
0.2
  9
$TRACEWID
 40
0.05
  9
$TEXTSTYLE
  7
STANDARD
  9
$CLAYER
  8
CORTE
  9
$CELTYPE
  6
BYLAYER
  9
$CECOLOR
 62
   256
  9
$DIMSCALE
 40
1.0
  9
$DIMASZ
 40
0.18
  9
$DIMEXO
 40
0.0625
  9
$DIMDLI
 40
0.38
  9
$DIMRND
 40
0.0
  9
$DIMDLE
 40
0.0
  9
$DIMEXE
 40
0.18
  9
$DIMTP
 40
0.0
  9
$DIMTM
 40
0.0
  9
$DIMTXT
 40
0.18
  9
$DIMCEN
 40
0.09
  9
$DIMTSZ
 40
0.0
  9
$DIMTOL
 70
     0
  9
$DIMLIM
 70
     0
  9
$DIMTIH
 70
     1
  9
$DIMTOH
 70
     1
  9
$DIMSE1
 70
     0
  9
$DIMSE2
 70
     0
  9
$DIMTAD
 70
     0
  9
$DIMZIN
 70
     0
  9
$DIMBLK
  1

  9
$DIMASO
 70
     1
  9
$DIMSHO
 70
     1
  9
$DIMPOST
  1

  9
$DIMAPOST
  1

  9
$DIMALT
 70
     0
  9
$DIMALTD
 70
     2
  9
$DIMALTF
 40
25.4
  9
$DIMLFAC
 40
1.0
  9
$DIMTOFL
 70
     0
  9
$DIMTVP
 40
0.0
  9
$DIMTIX
 70
     0
  9
$DIMSOXD
 70
     0
  9
$DIMSAH
 70
     0
  9
$DIMBLK1
  1

  9
$DIMBLK2
  1

  9
$DIMSTYLE
  2
STANDARD_ACAD
  9
$DIMCLRD
 70
     0
  9
$DIMCLRE
 70
     0
  9
$DIMCLRT
 70
     0
  9
$DIMTFAC
 40
1.0
  9
$DIMGAP
 40
0.09
  9
$LUNITS
 70
     2
  9
$LUPREC
 70
     3
  9
$SKETCHINC
 40
0.1
  9
$FILLETRAD
 40
0.5
  9
$AUNITS
 70
     0
  9
$AUPREC
 70
     0
  9
$MENU
  1
.
  9
$ELEVATION
 40
0.0
  9
$PELEVATION
 40
0.0
  9
$THICKNESS
 40
0.0
  9
$LIMCHECK
 70
     0
  9
$CHAMFERA
 40
0.0
  9
$CHAMFERB
 40
0.0
  9
$SKPOLY
 70
     0
  9
$TDCREATE
 40
2459187.555415046
  9
$TDUPDATE
 40
2459187.55544265
  9
$TDINDWG
 40
0.0000000116
  9
$TDUSRTIMER
 40
0.0000000116
  9
$USRTIMER
 70
     1
  9
$ANGBASE
 50
0.0
  9
$ANGDIR
 70
     0
  9
$PDMODE
 70
     0
  9
$PDSIZE
 40
0.0
  9
$PLINEWID
 40
0.0
  9
$COORDS
 70
     1
  9
$SPLFRAME
 70
     0
  9
$SPLINETYPE
 70
     6
  9
$SPLINESEGS
 70
     8
  9
$ATTDIA
 70
     0
  9
$ATTREQ
 70
     1
  9
$HANDLING
 70
     1
  9
$HANDSEED
  5
136
  9
$SURFTAB1
 70
     6
  9
$SURFTAB2
 70
     6
  9
$SURFTYPE
 70
     6
  9
$SURFU
 70
     6
  9
$SURFV
 70
     6
  9
$UCSNAME
  2

  9
$UCSORG
 10
0.0
 20
0.0
 30
0.0
  9
$UCSXDIR
 10
1.0
 20
0.0
 30
0.0
  9
$UCSYDIR
 10
0.0
 20
1.0
 30
0.0
  9
$PUCSNAME
  2

  9
$PUCSORG
 10
0.0
 20
0.0
 30
0.0
  9
$PUCSXDIR
 10
1.0
 20
0.0
 30
0.0
  9
$PUCSYDIR
 10
0.0
 20
1.0
 30
0.0
  9
$USERI1
 70
     0
  9
$USERI2
 70
     0
  9
$USERI3
 70
     0
  9
$USERI4
 70
     0
  9
$USERI5
 70
     0
  9
$USERR1
 40
0.0
  9
$USERR2
 40
0.0
  9
$USERR3
 40
0.0
  9
$USERR4
 40
0.0
  9
$USERR5
 40
0.0
  9
$WORLDVIEW
 70
     1
  9
$SHADEDGE
 70
     3
  9
$SHADEDIF
 70
    70
  9
$TILEMODE
 70
     1
  9
$MAXACTVP
 70
    64
  9
$PLIMCHECK
 70
     0
  9
$PEXTMIN
 10
1.000000000000000E+20
 20
1.000000000000000E+20
 30
1.000000000000000E+20
  9
$PEXTMAX
 10
-1.000000000000000E+20
 20
-1.000000000000000E+20
 30
-1.000000000000000E+20
  9
$PLIMMIN
 10
0.0
 20
0.0
  9
$PLIMMAX
 10
12.0
 20
9.0
  9
$UNITMODE
 70
     0
  9
$VISRETAIN
 70
     1
  9
$PLINEGEN
 70
     0
  9
$PSLTSCALE
 70
     1
  0
ENDSEC
  0
SECTION
  2
TABLES
  0
TABLE
  2
VPORT
 70
     1
  0
VPORT
  2
*ACTIVE
 70
     0
 10
0.0
 20
0.0
 11
1.0
 21
1.0
 12
10.42990654205607
 22
4.5
 13
0.0
 23
0.0
 14
0.5
 24
0.5
 15
0.5
 25
0.5
 16
0.0
 26
0.0
 36
1.0
 17
0.0
 27
0.0
 37
0.0
 40
9.0
 41
1.972972972850329
 42
50.0
 43
0.0
 44
0.0
 50
0.0
 51
0.0
 71
     0
 72
   100
 73
     1
 74
     3
 75
     0
 76
     0
 77
     0
 78
     0
  0
ENDTAB
  0
TABLE
  2
LTYPE
 70
     1
  0
LTYPE
  2
CONTINUOUS
 70
     0
  3
Solid line
 72
    65
 73
     0
 40
0.0
  0
ENDTAB
  0
TABLE
  2
LAYER
 70
     4
  0
LAYER
  2
0
 70
     0
 62
     7
  6
CONTINUOUS
  0
LAYER
  2
CORTE
 70
     0
 62
     1
  6
CONTINUOUS
  0
LAYER
  2
GRABADO_VECTORIAL
 70
     0
 62
     5
  6
CONTINUOUS
  0
LAYER
  2
GUIAS
 70
     0
 62
     4
  6
CONTINUOUS
  0
ENDTAB
  0
TABLE
  2
STYLE
 70
     1
  0
STYLE
  2
STANDARD
 70
     0
 40
0.0
 41
1.0
 50
0.0
 71
     0
 42
0.2
  3
txt
  4

  0
ENDTAB
  0
TABLE
  2
VIEW
 70
     0
  0
ENDTAB
  0
TABLE
  2
UCS
 70
     0
  0
ENDTAB
  0
TABLE
  2
APPID
 70
     1
  0
APPID
  2
ACAD
 70
     0
  0
ENDTAB
  0
TABLE
  2
DIMSTYLE
 70
     1
  0
DIMSTYLE
  2
STANDARD_ACAD
 70
     0
  3

  4

  5

  6

  7

 40
1.0
 41
0.18
 42
0.0625
 43
0.38
 44
0.18
 45
0.0
 46
0.0
 47
0.0
 48
0.0
140
0.18
141
0.09
142
0.0
143
25.4
144
1.0
145
0.0
146
1.0
147
0.09
 71
     0
 72
     0
 73
     1
 74
     1
 75
     0
 76
     0
 77
     0
 78
     0
170
     0
171
     2
172
     0
173
     0
174
     0
175
     0
176
     0
177
     0
178
     0
  0
ENDTAB
  0
ENDSEC
  0
SECTION
  2
BLOCKS
  0
BLOCK
  8
0
  2
$MODEL_SPACE
 70
     0
 10
0.0
 20
0.0
 30
0.0
  3
$MODEL_SPACE
  1

  0
ENDBLK
  5
21
  8
0
  0
BLOCK
 67
     1
  8
0
  2
$PAPER_SPACE
 70
     0
 10
0.0
 20
0.0
 30
0.0
  3
$PAPER_SPACE
  1

  0
ENDBLK
  5
1D
 67
     1
  8
0
  0
BLOCK
  8
0
  2
BASEMOTORA
 70
     0
 10
0.0
 20
0.0
 30
0.0
  3
BASEMOTORA
  1

  0
CIRCLE
  5
DC
  8
CORTE
 10
29.50000000000001
 20
29.50000000000001
 30
0.0
 40
13.1
  0
CIRCLE
  5
DD
  8
CORTE
 10
4.5
 20
57.5
 30
0.0
 40
1.8
  0
CIRCLE
  5
DE
  8
CORTE
 10
4.5
 20
32.5
 30
0.0
 40
1.8
  0
CIRCLE
  5
DF
  8
CORTE
 10
32.5
 20
4.5
 30
0.0
 40
1.8
  0
CIRCLE
  5
E0
  8
CORTE
 10
57.5
 20
4.5
 30
0.0
 40
1.8
  0
CIRCLE
  5
E1
  8
CORTE
 10
14.0
 20
45.0
 30
0.0
 40
3.1
  0
CIRCLE
  5
E2
  8
CORTE
 10
14.0
 20
14.0
 30
0.0
 40
3.1
  0
CIRCLE
  5
E3
  8
CORTE
 10
45.0
 20
14.0
 30
0.0
 40
3.1
  0
CIRCLE
  5
E4
  8
CORTE
 10
45.0
 20
45.0
 30
0.0
 40
3.1
  0
POLYLINE
  5
E5
  8
CORTE
 66
     1
 10
0.0
 20
0.0
 30
0.0
 70
     1
  0
VERTEX
  5
E6
  8
CORTE
 10
0.0000000000000043
 20
70.0
 30
0.0
  0
VERTEX
  5
E7
  8
CORTE
 10
9.0
 20
70.0
 30
0.0
  0
VERTEX
  5
E8
  8
CORTE
 10
27.9
 20
51.1
 30
0.0
  0
VERTEX
  5
E9
  8
CORTE
 10
48.1
 20
51.1
 30
0.0
 42
-0.4142135623730951
  0
VERTEX
  5
EA
  8
CORTE
 10
51.1
 20
48.1
 30
0.0
  0
VERTEX
  5
EB
  8
CORTE
 10
51.1
 20
27.9
 30
0.0
  0
VERTEX
  5
EC
  8
CORTE
 10
70.0
 20
9.0
 30
0.0
  0
VERTEX
  5
ED
  8
CORTE
 10
70.0
 20
0.0
 30
0.0
  0
VERTEX
  5
EE
  8
CORTE
 10
20.0
 20
0.0
 30
0.0
  0
VERTEX
  5
EF
  8
CORTE
 10
20.0
 20
7.9
 30
0.0
  0
VERTEX
  5
F0
  8
CORTE
 10
10.9
 20
7.9
 30
0.0
 42
-0.4142135623730949
  0
VERTEX
  5
F1
  8
CORTE
 10
7.9
 20
10.9
 30
0.0
  0
VERTEX
  5
F2
  8
CORTE
 10
7.9
 20
20.0
 30
0.0
  0
VERTEX
  5
F3
  8
CORTE
 10
0.0000000000000012
 20
20.0
 30
0.0
  0
SEQEND
  5
F4
  8
CORTE
  0
ENDBLK
  5
F6
  8
0
  0
BLOCK
  8
0
  2
BASEMOTORB
 70
     0
 10
0.0
 20
0.0
 30
0.0
  3
BASEMOTORB
  1

  0
CIRCLE
  5
F8
  8
CORTE
 10
4.5
 20
57.5
 30
0.0
 40
1.8
  0
CIRCLE
  5
F9
  8
CORTE
 10
4.5
 20
32.5
 30
0.0
 40
1.8
  0
CIRCLE
  5
FA
  8
CORTE
 10
14.0
 20
45.0
 30
0.0
 40
1.8
  0
CIRCLE
  5
FB
  8
CORTE
 10
29.50000000000001
 20
29.50000000000001
 30
0.0
 40
13.1
  0
CIRCLE
  5
FC
  8
CORTE
 10
45.0
 20
45.0
 30
0.0
 40
1.8
  0
CIRCLE
  5
FD
  8
CORTE
 10
14.0
 20
14.0
 30
0.0
 40
1.8
  0
CIRCLE
  5
FE
  8
CORTE
 10
45.0
 20
14.0
 30
0.0
 40
1.8
  0
CIRCLE
  5
FF
  8
CORTE
 10
32.5
 20
4.5
 30
0.0
 40
1.8
  0
CIRCLE
  5
100
  8
CORTE
 10
57.5
 20
4.5
 30
0.0
 40
1.8
  0
POLYLINE
  5
101
  8
CORTE
 66
     1
 10
0.0
 20
0.0
 30
0.0
 70
     1
  0
VERTEX
  5
102
  8
CORTE
 10
0.0000000000000043
 20
70.0
 30
0.0
  0
VERTEX
  5
103
  8
CORTE
 10
9.0
 20
70.0
 30
0.0
  0
VERTEX
  5
104
  8
CORTE
 10
27.9
 20
51.1
 30
0.0
  0
VERTEX
  5
105
  8
CORTE
 10
48.1
 20
51.1
 30
0.0
 42
-0.4142135623730951
  0
VERTEX
  5
106
  8
CORTE
 10
51.1
 20
48.1
 30
0.0
  0
VERTEX
  5
107
  8
CORTE
 10
51.1
 20
27.9
 30
0.0
  0
VERTEX
  5
108
  8
CORTE
 10
70.0
 20
9.0
 30
0.0
  0
VERTEX
  5
109
  8
CORTE
 10
70.0
 20
0.0
 30
0.0
  0
VERTEX
  5
10A
  8
CORTE
 10
20.0
 20
0.0
 30
0.0
  0
VERTEX
  5
10B
  8
CORTE
 10
20.0
 20
7.9
 30
0.0
  0
VERTEX
  5
10C
  8
CORTE
 10
10.9
 20
7.9
 30
0.0
 42
-0.4142135623730949
  0
VERTEX
  5
10D
  8
CORTE
 10
7.9
 20
10.9
 30
0.0
  0
VERTEX
  5
10E
  8
CORTE
 10
7.9
 20
20.0
 30
0.0
  0
VERTEX
  5
10F
  8
CORTE
 10
0.0000000000000012
 20
20.0
 30
0.0
  0
SEQEND
  5
110
  8
CORTE
  0
ENDBLK
  5
112
  8
0
  0
BLOCK
  8
0
  2
BASEPOLEAS
 70
     0
 10
0.0
 20
0.0
 30
0.0
  3
BASEPOLEAS
  1

  0
CIRCLE
  5
114
  8
CORTE
 10
4.5
 20
57.5
 30
0.0
 40
1.8
  0
POLYLINE
  5
115
  8
CORTE
 66
     1
 10
0.0
 20
0.0
 30
0.0
 70
     1
  0
VERTEX
  5
116
  8
CORTE
 10
0.0000000000000043
 20
70.0
 30
0.0
  0
VERTEX
  5
117
  8
CORTE
 10
9.0
 20
70.0
 30
0.0
  0
VERTEX
  5
118
  8
CORTE
 10
70.0
 20
9.0
 30
0.0
  0
VERTEX
  5
119
  8
CORTE
 10
70.0
 20
0.0
 30
0.0
  0
VERTEX
  5
11A
  8
CORTE
 10
20.0
 20
0.0
 30
0.0
  0
VERTEX
  5
11B
  8
CORTE
 10
20.0
 20
9.0
 30
0.0
  0
VERTEX
  5
11C
  8
CORTE
 10
9.0
 20
20.0
 30
0.0
  0
VERTEX
  5
11D
  8
CORTE
 10
0.0000000000000012
 20
20.0
 30
0.0
  0
SEQEND
  5
11E
  8
CORTE
  0
CIRCLE
  5
11F
  8
CORTE
 10
4.5
 20
32.5
 30
0.0
 40
1.8
  0
CIRCLE
  5
120
  8
CORTE
 10
29.50000000000001
 20
29.50000000000001
 30
0.0
 40
2.6
  0
CIRCLE
  5
121
  8
CORTE
 10
32.5
 20
4.5
 30
0.0
 40
1.8
  0
CIRCLE
  5
122
  8
CORTE
 10
57.5
 20
4.5
 30
0.0
 40
1.8
  0
ENDBLK
  5
124
  8
0
  0
BLOCK
  8
0
  2
TAPAIDLER
 70
     0
 10
0.0
 20
0.0
 30
0.0
  3
TAPAIDLER
  1

  0
CIRCLE
  5
126
  8
CORTE
 10
0.0000000000000142
 20
0.0
 30
0.0
 40
10.0
  0
CIRCLE
  5
127
  8
CORTE
 10
0.0000000000000142
 20
0.0
 30
0.0
 40
2.6
  0
ENDBLK
  5
129
  8
0
  0
BLOCK
  8
0
  2
SEPARADOR
 70
     0
 10
0.0
 20
0.0
 30
0.0
  3
SEPARADOR
  1

  0
CIRCLE
  5
12B
  8
CORTE
 10
0.0
 20
0.0
 30
0.0
 40
2.6
  0
CIRCLE
  5
12C
  8
CORTE
 10
0.0
 20
0.0
 30
0.0
 40
4.6
  0
ENDBLK
  5
12E
  8
0
  0
ENDSEC
  0
SECTION
  2
ENTITIES
  0
ARC
  5
6F
  8
CORTE
 10
-124.1958167359569
 20
586.2591674346609
 30
2.0
 40
1.0
 50
90.0
 51
180.0
210
0.0
220
0.0
230
-1.0
  0
LINE
  5
70
  8
CORTE
 10
125.1958167359569
 20
586.2591674346609
 30
-2.0
 11
125.1958167359565
 21
440.5391674346608
 31
-2.0
  0
ARC
  5
71
  8
CORTE
 10
-124.1958167359565
 20
440.5391674346608
 30
2.0
 40
1.0
 50
180.0
 51
270.0
210
0.0
220
0.0
230
-1.0
  0
POLYLINE
  5
72
  8
CORTE
 66
     1
 10
0.0
 20
0.0
 30
-2.0
 70
     1
  0
VERTEX
  5
73
  8
CORTE
 10
104.395816145472
 20
512.2014845578299
 30
-2.0
 42
-0.3923869358840575
  0
VERTEX
  5
74
  8
CORTE
 10
105.1458162108976
 20
511.0908741683315
 30
-2.0
  0
VERTEX
  5
75
  8
CORTE
 10
105.1458162108976
 20
491.0998871573615
 30
-2.0
 42
-0.3923869354339843
  0
VERTEX
  5
76
  8
CORTE
 10
104.3958161462399
 20
489.9892767678631
 30
-2.0
  0
VERTEX
  5
77
  8
CORTE
 10
99.8958161462399
 20
489.9892767678631
 30
-2.0
 42
-0.3923868830208042
  0
VERTEX
  5
78
  8
CORTE
 10
99.14581621089758
 20
491.0998873488536
 30
-2.0
  0
VERTEX
  5
79
  8
CORTE
 10
99.14581621089764
 20
511.0908739745653
 30
-2.0
 42
-0.3923868828485184
  0
VERTEX
  5
7A
  8
CORTE
 10
99.895816145472
 20
512.2014845578299
 30
-2.0
  0
SEQEND
  5
7B
  8
CORTE
  0
LINE
  5
7C
  8
CORTE
 10
100.6458167359565
 20
486.2402645049481
 30
-2.0
 11
100.6458167359565
 21
479.4902645049507
 31
-2.0
  0
LINE
  5
7D
  8
CORTE
 10
99.14581673595654
 20
479.4892767678605
 30
-2.0
 11
99.14581673595654
 21
486.2402645049481
 31
-2.0
  0
ARC
  5
7E
  8
CORTE
 10
99.89581608553993
 20
486.239276767863
 30
-2.0
 40
0.7500000000000071
 50
0.0
 51
180.0000099962925
  0
LINE
  5
7F
  8
CORTE
 10
34.4458167359567
 20
582.9902643740998
 30
-2.0
 11
34.4458167359567
 21
569.4902646342664
 31
-2.0
  0
LINE
  5
80
  8
CORTE
 10
32.9458167359567
 20
582.9902645049509
 30
-2.0
 11
32.9458167359567
 21
569.4902645049509
 31
-2.0
  0
LINE
  5
81
  8
CORTE
 10
34.4458167359567
 20
564.99070623456
 30
-2.0
 11
34.44581673595673
 21
551.4898227753465
 31
-2.0
  0
LINE
  5
82
  8
CORTE
 10
32.9458167359567
 20
564.9902645049509
 30
-2.0
 11
32.94581673595673
 21
551.4902645049509
 31
-2.0
  0
LINE
  5
83
  8
CORTE
 10
34.44581673595673
 20
546.990889204853
 30
-2.0
 11
34.44581673595673
 21
533.4896398050656
 31
-2.0
  0
LINE
  5
84
  8
CORTE
 10
32.94581673595673
 20
546.9902645049509
 30
-2.0
 11
32.94581673595673
 21
533.4902645049509
 31
-2.0
  0
LINE
  5
85
  8
CORTE
 10
34.44581673595673
 20
528.9910296028905
 30
-2.0
 11
34.44581673595661
 21
515.4894994070137
 31
-2.0
  0
LINE
  5
86
  8
CORTE
 10
32.94581673595673
 20
528.9902645049509
 30
-2.0
 11
32.94581673595661
 21
515.4902645049508
 31
-2.0
  0
LINE
  5
87
  8
CORTE
 10
34.44581673595661
 20
510.9911479639029
 30
-2.0
 11
34.4458167359565
 21
497.4893810460127
 31
-2.0
  0
LINE
  5
88
  8
CORTE
 10
32.94581673595661
 20
510.9902645049509
 30
-2.0
 11
32.9458167359565
 21
497.4902645049509
 31
-2.0
  0
LINE
  5
89
  8
CORTE
 10
34.4458167359565
 20
492.9912522420551
 30
-2.0
 11
34.4458167359565
 21
479.4892767678371
 31
-2.0
  0
LINE
  5
8A
  8
CORTE
 10
32.9458167359565
 20
492.9902645049508
 30
-2.0
 11
32.9458167359565
 21
479.4902645049509
 31
-2.0
  0
LINE
  5
8B
  8
CORTE
 10
34.4458167359565
 20
474.9913465166848
 30
-2.0
 11
34.4458167359565
 21
461.4891824932077
 31
-2.0
  0
LINE
  5
8C
  8
CORTE
 10
32.9458167359565
 20
474.9902645049508
 30
-2.0
 11
32.9458167359565
 21
461.4902645049509
 31
-2.0
  0
LINE
  5
8D
  8
CORTE
 10
34.4458167359565
 20
456.9914332111505
 30
-2.0
 11
34.44581673595638
 21
443.4890957987499
 31
-2.0
  0
LINE
  5
8E
  8
CORTE
 10
32.9458167359565
 20
456.9902645049508
 30
-2.0
 11
32.94581673595638
 21
443.4902645049509
 31
-2.0
  0
LINE
  5
8F
  8
CORTE
 10
100.6458167359565
 20
456.9902645049506
 30
-2.0
 11
100.6458167359564
 21
443.4902645049507
 31
-2.0
  0
LINE
  5
90
  8
CORTE
 10
99.14581673595643
 20
443.4890957987784
 30
-2.0
 11
99.14581673595654
 21
456.9914332111275
 31
-2.0
  0
LINE
  5
91
  8
CORTE
 10
100.6458167359565
 20
474.9902645049507
 30
-2.0
 11
100.6458167359565
 21
461.4902645049507
 31
-2.0
  0
LINE
  5
92
  8
CORTE
 10
99.14581673595654
 20
461.4891824932351
 30
-2.0
 11
99.14581673595654
 21
474.9913465166623
 31
-2.0
  0
LINE
  5
93
  8
CORTE
 10
99.14581673595666
 20
515.4894994070272
 30
-2.0
 11
99.14581673595666
 21
528.9910296028722
 31
-2.0
  0
LINE
  5
94
  8
CORTE
 10
100.6458167359567
 20
528.9902645049507
 30
-2.0
 11
100.6458167359567
 21
515.4902645049507
 31
-2.0
  0
LINE
  5
95
  8
CORTE
 10
99.14581673595666
 20
533.4896398050848
 30
-2.0
 11
99.14581673595677
 21
546.9908892048189
 31
-2.0
  0
LINE
  5
96
  8
CORTE
 10
100.6458167359568
 20
546.9902645049507
 30
-2.0
 11
100.6458167359567
 21
533.4902645049506
 31
-2.0
  0
LINE
  5
97
  8
CORTE
 10
99.14581673595677
 20
551.4898227754089
 30
-2.0
 11
99.14581673595674
 21
564.9907062344679
 31
-2.0
  0
LINE
  5
98
  8
CORTE
 10
100.6458167359567
 20
564.9902645049507
 30
-2.0
 11
100.6458167359568
 21
551.4902645049507
 31
-2.0
  0
LINE
  5
99
  8
CORTE
 10
100.6458167359569
 20
582.9902645049507
 30
-2.0
 11
100.6458167359567
 21
569.4902645049507
 31
-2.0
  0
LINE
  5
9A
  8
CORTE
 10
99.14581673595674
 20
569.4902646342662
 30
-2.0
 11
99.14581673595686
 21
582.9902643740995
 31
-2.0
  0
ARC
  5
9B
  8
CORTE
 10
99.89581673595686
 20
582.9902645049507
 30
-2.0
 40
0.7500000000000071
 50
0.0
 51
180.0000099962925
  0
ARC
  5
9C
  8
CORTE
 10
99.89581673595674
 20
569.4902645049507
 30
-2.0
 40
0.7500000000000071
 50
179.999990121025
 51
0.0
  0
ARC
  5
9D
  8
CORTE
 10
99.89581660587342
 20
564.9902645049507
 30
-2.0
 40
0.7500000000000071
 50
0.0
 51
180.0000099962925
  0
ARC
  5
9E
  8
CORTE
 10
99.89581660587345
 20
551.4902645049507
 30
-2.0
 40
0.7500000000000071
 50
179.999990121025
 51
0.0
  0
ARC
  5
9F
  8
CORTE
 10
99.89581647579013
 20
546.9902645049507
 30
-2.0
 40
0.7500000000000071
 50
0.0
 51
180.0000099962925
  0
ARC
  5
A0
  8
CORTE
 10
99.89581647579001
 20
533.4902645049507
 30
-2.0
 40
0.7500000000000071
 50
179.999990121025
 51
0.0
  0
ARC
  5
A1
  8
CORTE
 10
99.89581634570669
 20
528.9902645049507
 30
-2.0
 40
0.7500000000000071
 50
0.0
 51
180.0000099962925
  0
ARC
  5
A2
  8
CORTE
 10
99.89581634570669
 20
515.4902645049507
 30
-2.0
 40
0.7500000000000071
 50
179.999990121025
 51
0.0
  0
ARC
  5
A3
  8
CORTE
 10
99.89581608553993
 20
479.4902645049507
 30
-2.0
 40
0.7500000000000071
 50
179.999990121025
 51
0.0
  0
ARC
  5
A4
  8
CORTE
 10
99.89581595545661
 20
474.9902645049506
 30
-2.0
 40
0.7500000000000071
 50
0.0
 51
180.0000099962925
  0
ARC
  5
A5
  8
CORTE
 10
99.89581595545661
 20
461.4902645049507
 30
-2.0
 40
0.7500000000000071
 50
179.999990121025
 51
0.0
  0
ARC
  5
A6
  8
CORTE
 10
99.89581582537329
 20
456.9902645049506
 30
-2.0
 40
0.7500000000000071
 50
0.0
 51
180.0000099962925
  0
ARC
  5
A7
  8
CORTE
 10
99.89581582537318
 20
443.4902645049507
 30
-2.0
 40
0.7500000000000071
 50
179.999990121025
 51
0.0
  0
ARC
  5
A8
  8
CORTE
 10
-33.6958167359567
 20
582.9902645049509
 30
2.0
 40
0.7500000000000071
 50
0.0
 51
180.0000099962925
210
0.0
220
0.0
230
-1.0
  0
ARC
  5
A9
  8
CORTE
 10
-33.6958167359567
 20
569.4902645049509
 30
2.0
 40
0.7500000000000071
 50
179.999990121025
 51
0.0
210
0.0
220
0.0
230
-1.0
  0
ARC
  5
AA
  8
CORTE
 10
-33.69581686604002
 20
564.9902645049509
 30
2.0
 40
0.7500000000000071
 50
0.0
 51
180.0000099962925
210
0.0
220
0.0
230
-1.0
  0
ARC
  5
AB
  8
CORTE
 10
-33.69581686604005
 20
551.4902645049509
 30
2.0
 40
0.7500000000000071
 50
179.999990121025
 51
0.0
210
0.0
220
0.0
230
-1.0
  0
ARC
  5
AC
  8
CORTE
 10
-33.69581699612337
 20
546.9902645049509
 30
2.0
 40
0.7500000000000071
 50
0.0
 51
180.0000099962925
210
0.0
220
0.0
230
-1.0
  0
ARC
  5
AD
  8
CORTE
 10
-33.69581699612337
 20
533.4902645049509
 30
2.0
 40
0.7500000000000071
 50
179.999990121025
 51
0.0
210
0.0
220
0.0
230
-1.0
  0
ARC
  5
AE
  8
CORTE
 10
-33.69581712620658
 20
528.9902645049508
 30
2.0
 40
0.7500000000000071
 50
0.0
 51
180.0000099962925
210
0.0
220
0.0
230
-1.0
  0
ARC
  5
AF
  8
CORTE
 10
-33.69581712620658
 20
515.4902645049508
 30
2.0
 40
0.7500000000000071
 50
179.999990121025
 51
0.0
210
0.0
220
0.0
230
-1.0
  0
ARC
  5
B0
  8
CORTE
 10
-33.6958172562899
 20
510.9902645049509
 30
2.0
 40
0.7500000000000071
 50
0.0
 51
180.0000099962925
210
0.0
220
0.0
230
-1.0
  0
ARC
  5
B1
  8
CORTE
 10
-33.69581725628979
 20
497.4902645049509
 30
2.0
 40
0.7500000000000071
 50
179.999990121025
 51
0.0
210
0.0
220
0.0
230
-1.0
  0
ARC
  5
B2
  8
CORTE
 10
-33.69581738637322
 20
492.9902645049508
 30
2.0
 40
0.7500000000000071
 50
0.0
 51
180.0000099962925
210
0.0
220
0.0
230
-1.0
  0
ARC
  5
B3
  8
CORTE
 10
-33.69581738637322
 20
479.4902645049509
 30
2.0
 40
0.7500000000000071
 50
179.999990121025
 51
0.0
210
0.0
220
0.0
230
-1.0
  0
ARC
  5
B4
  8
CORTE
 10
-33.69581751645643
 20
474.9902645049508
 30
2.0
 40
0.7500000000000071
 50
0.0
 51
180.0000099962925
210
0.0
220
0.0
230
-1.0
  0
ARC
  5
B5
  8
CORTE
 10
-33.69581751645643
 20
461.4902645049509
 30
2.0
 40
0.7500000000000071
 50
179.999990121025
 51
0.0
210
0.0
220
0.0
230
-1.0
  0
ARC
  5
B6
  8
CORTE
 10
-33.69581764653975
 20
456.9902645049508
 30
2.0
 40
0.7500000000000071
 50
0.0
 51
180.0000099962925
210
0.0
220
0.0
230
-1.0
  0
ARC
  5
B7
  8
CORTE
 10
-33.69581764653964
 20
443.4902645049509
 30
2.0
 40
0.7500000000000071
 50
179.999990121025
 51
0.0
210
0.0
220
0.0
230
-1.0
  0
ARC
  5
B8
  8
CORTE
 10
9.395816735956316
 20
440.5391674346612
 30
-2.0
 40
1.0
 50
180.0
 51
269.9999999999998
  0
LINE
  5
B9
  8
CORTE
 10
8.395816735956743
 20
586.2591674346611
 30
-2.0
 11
8.395816735956316
 21
440.5391674346612
 31
-2.0
  0
ARC
  5
BA
  8
CORTE
 10
9.395816735956743
 20
586.2591674346611
 30
-2.0
 40
1.0
 50
89.9999999999998
 51
180.0
  0
LINE
  5
BB
  8
CORTE
 10
124.1958167359569
 20
587.2591674346609
 30
-2.0
 11
9.395816735956743
 21
587.2591674346611
 31
-2.0
  0
LINE
  5
BC
  8
CORTE
 10
124.1958167359565
 20
439.5391674346608
 30
-2.0
 11
9.395816735956316
 21
439.5391674346612
 31
-2.0
  0
POLYLINE
  5
BE
  8
GRABADO_VECTORIAL
 66
     1
 10
0.0
 20
0.0
 30
0.0
 70
     1
  0
VERTEX
  5
BF
  8
GRABADO_VECTORIAL
 10
80.68694400010003
 20
500.4952985369875
 30
0.0
  0
VERTEX
  5
C0
  8
GRABADO_VECTORIAL
 10
75.192690449803
 20
491.2658554201317
 30
0.0
  0
VERTEX
  5
C1
  8
GRABADO_VECTORIAL
 10
64.78146469232578
 20
488.6246775486015
 30
0.0
  0
VERTEX
  5
C2
  8
GRABADO_VECTORIAL
 10
55.55202157546984
 20
494.1189310988985
 30
0.0
  0
VERTEX
  5
C3
  8
GRABADO_VECTORIAL
 10
52.9108437039398
 20
504.530156856376
 30
0.0
  0
VERTEX
  5
C4
  8
GRABADO_VECTORIAL
 10
58.40509725423689
 20
513.759599973232
 30
0.0
  0
VERTEX
  5
C5
  8
GRABADO_VECTORIAL
 10
68.81632301171445
 20
516.400777844762
 30
0.0
  0
VERTEX
  5
C6
  8
GRABADO_VECTORIAL
 10
78.04576612857011
 20
510.9065242944653
 30
0.0
  0
SEQEND
  5
C7
  8
GRABADO_VECTORIAL
  0
POLYLINE
  5
C8
  8
GRABADO_VECTORIAL
 66
     1
 10
0.0
 20
0.0
 30
0.0
 70
     1
  0
VERTEX
  5
C9
  8
GRABADO_VECTORIAL
 10
78.03121189626864
 20
505.9992195270199
 30
0.0
  0
VERTEX
  5
CA
  8
GRABADO_VECTORIAL
 10
75.39795283992174
 20
494.5133065710291
 30
0.0
  0
VERTEX
  5
CB
  8
GRABADO_VECTORIAL
 10
64.13423090620597
 20
491.0508193305751
 30
0.0
  0
VERTEX
  5
CC
  8
GRABADO_VECTORIAL
 10
55.50376802882752
 20
499.0742450461114
 30
0.0
  0
VERTEX
  5
CD
  8
GRABADO_VECTORIAL
 10
58.13702708517502
 20
510.5601580020981
 30
0.0
  0
VERTEX
  5
CE
  8
GRABADO_VECTORIAL
 10
69.4007490188906
 20
514.0226452425566
 30
0.0
  0
SEQEND
  5
CF
  8
GRABADO_VECTORIAL
  0
CIRCLE
  5
D0
  8
CORTE
 10
115.1458167359567
 20
550.3291674346607
 30
-2.000000000000014
 40
1.850000000000023
  0
CIRCLE
  5
D1
  8
CORTE
 10
115.1458167359566
 20
476.4691674346608
 30
-2.0
 40
1.850000000000023
  0
CIRCLE
  5
D2
  8
CORTE
 10
-18.44581673595656
 20
476.4691674346611
 30
2.0
 40
1.849999999999909
210
0.0
220
0.0
230
-1.0
  0
CIRCLE
  5
D3
  8
CORTE
 10
-18.44581673595692
 20
550.3291674346609
 30
2.000000000000014
 40
1.850000000000023
210
0.0
220
0.0
230
-1.0
  0
POLYLINE
  5
D5
  8
GUIAS
 66
     1
 10
0.0
 20
0.0
 30
0.0
 70
     1
  0
VERTEX
  5
D6
  8
GUIAS
 10
0.0
 20
0.0
 30
0.0
  0
VERTEX
  5
D7
  8
GUIAS
 10
0.0
 20
600.0000000000002
 30
0.0
  0
VERTEX
  5
D8
  8
GUIAS
 10
900.0000000000001
 20
600.0000000000002
 30
0.0
  0
VERTEX
  5
D9
  8
GUIAS
 10
900.0000000000001
 20
0.0
 30
0.0
  0
SEQEND
  5
DA
  8
GUIAS
  0
ENDSEC
  0
EOF
